<?xml version="1.0"?>
<svg xmlns="http://www.w3.org/2000/svg" width="512" height="512" viewBox="0 0 128 128"><g><path d="M94.5,59.71h19.594a4.751,4.751,0,1,0,0-3.5H94.5V47.62h12.63a1.751,1.751,0,0,0,1.75-1.75V34.34h5.214a4.751,4.751,0,1,0,0-3.5H107.13a1.751,1.751,0,0,0-1.75,1.75V44.12H94.5V35.25a1.751,1.751,0,0,0-1.75-1.75H83.88V22.62H95.41a1.751,1.751,0,0,0,1.75-1.75V13.906a4.749,4.749,0,1,0-3.5,0V19.12H82.13a1.751,1.751,0,0,0-1.75,1.75V33.5H71.79V13.907a4.749,4.749,0,1,0-3.5,0V33.5H59.71V13.906a4.751,4.751,0,1,0-3.5,0V33.5H47.62V20.87a1.751,1.751,0,0,0-1.75-1.75H34.34V13.906a4.751,4.751,0,1,0-3.5,0V20.87a1.751,1.751,0,0,0,1.75,1.75H44.12V33.5H35.25a1.751,1.751,0,0,0-1.75,1.75v8.87H22.62V32.59a1.751,1.751,0,0,0-1.75-1.75H13.907a4.75,4.75,0,1,0,0,3.5H19.12V45.87a1.751,1.751,0,0,0,1.75,1.75H33.5v8.59H13.907a4.749,4.749,0,1,0,0,3.5H33.5v8.58H13.906a4.751,4.751,0,1,0,0,3.5H33.5v8.59H20.87a1.751,1.751,0,0,0-1.75,1.75V93.66H13.906a4.751,4.751,0,1,0,0,3.5H20.87a1.751,1.751,0,0,0,1.75-1.75V83.88H33.5v8.87a1.751,1.751,0,0,0,1.75,1.75h8.87v10.88H32.59a1.751,1.751,0,0,0-1.75,1.75v6.964a4.749,4.749,0,1,0,3.5,0V108.88H45.87a1.751,1.751,0,0,0,1.75-1.75V94.5h8.59v19.593a4.749,4.749,0,1,0,3.5,0V94.5h8.58v19.594a4.751,4.751,0,1,0,3.5,0V94.5h8.59v12.63a1.751,1.751,0,0,0,1.75,1.75H93.66v5.214a4.75,4.75,0,1,0,3.5,0V107.13a1.751,1.751,0,0,0-1.75-1.75H83.88V94.5h8.87a1.751,1.751,0,0,0,1.75-1.75V83.88h10.88V95.41a1.751,1.751,0,0,0,1.75,1.75h6.964a4.749,4.749,0,1,0,0-3.5H108.88V82.13a1.751,1.751,0,0,0-1.75-1.75H94.5V71.79h19.593a4.749,4.749,0,1,0,0-3.5H94.5Zm24-3a1.25,1.25,0,1,1-1.25,1.25A1.252,1.252,0,0,1,118.5,56.708Zm0-25.369a1.25,1.25,0,1,1-1.25,1.25A1.252,1.252,0,0,1,118.5,31.339ZM95.411,8.25a1.25,1.25,0,1,1-1.25,1.25A1.252,1.252,0,0,1,95.411,8.25Zm-25.369,0a1.25,1.25,0,1,1-1.25,1.25A1.252,1.252,0,0,1,70.042,8.25Zm-12.084,0a1.25,1.25,0,1,1-1.25,1.25A1.251,1.251,0,0,1,57.958,8.25Zm-25.369,0a1.25,1.25,0,1,1-1.25,1.25A1.251,1.251,0,0,1,32.589,8.25ZM9.5,33.839a1.25,1.25,0,1,1,1.25-1.25A1.251,1.251,0,0,1,9.5,33.839Zm0,25.369a1.25,1.25,0,1,1,1.25-1.25A1.251,1.251,0,0,1,9.5,59.208Zm0,12.084a1.25,1.25,0,1,1,1.25-1.25A1.252,1.252,0,0,1,9.5,71.292Zm0,25.369a1.25,1.25,0,1,1,1.25-1.25A1.252,1.252,0,0,1,9.5,96.661ZM32.589,119.75a1.25,1.25,0,1,1,1.25-1.25A1.252,1.252,0,0,1,32.589,119.75Zm25.369,0a1.25,1.25,0,1,1,1.25-1.25A1.252,1.252,0,0,1,57.958,119.75Zm12.084,0a1.25,1.25,0,1,1,1.25-1.25A1.251,1.251,0,0,1,70.042,119.75Zm25.369,0a1.25,1.25,0,1,1,1.25-1.25A1.251,1.251,0,0,1,95.411,119.75ZM118.5,94.161a1.25,1.25,0,1,1-1.25,1.25A1.251,1.251,0,0,1,118.5,94.161Zm0-25.369a1.25,1.25,0,1,1-1.25,1.25A1.251,1.251,0,0,1,118.5,68.792ZM91,91H37V37H91Z"/><path d="M83.75,42.5H44.25a1.751,1.751,0,0,0-1.75,1.75v39.5a1.751,1.751,0,0,0,1.75,1.75h39.5a1.751,1.751,0,0,0,1.75-1.75V44.25A1.751,1.751,0,0,0,83.75,42.5ZM82,82H46V46H82Z"/><path d="M77.75,66.583a1.751,1.751,0,0,0,1.75-1.75V54.958a1.75,1.75,0,0,0-3.5,0v9.875A1.751,1.751,0,0,0,77.75,66.583Z"/></g></svg>
