<?xml version="1.0" encoding="iso-8859-1"?>
<!-- Generator: Adobe Illustrator 19.0.0, SVG Export Plug-In . SVG Version: 6.00 Build 0)  -->
<svg version="1.1" id="Capa_1" xmlns="http://www.w3.org/2000/svg" xmlns:xlink="http://www.w3.org/1999/xlink" x="0px" y="0px"
	 viewBox="0 0 512 512" style="enable-background:new 0 0 512 512;" xml:space="preserve">
<g>
	<path style="fill:#7F8C8D;" d="M512,220.69v17.655L282.483,476.69H141.241V264.828h141.243l114.757-114.759l-4.414,22.069
		c-0.007,12.879,5.106,25.232,14.212,34.339s21.46,14.22,34.339,14.212H512z"/>
	<polygon style="fill:#D1D4D1;" points="512,220.69 512,273.655 459.034,326.621 282.483,512 264.828,512 264.828,459.034 
		282.483,459.034 459.034,273.655 	"/>
	<polygon style="fill:#ECF0F1;" points="512,0 512,26.483 282.483,247.172 0,247.172 0,229.517 229.517,0 	"/>
	<polygon style="fill:#7F8C8D;" points="114.759,344.276 123.586,344.276 123.586,467.862 0,467.862 0,459.034 	"/>
	<polygon style="fill:#D1D4D1;" points="512,0 512,52.966 282.483,282.483 273.655,282.483 273.655,229.517 282.483,229.517 	"/>
	<path style="fill:#C5CCD4;" d="M167.724,331.034v79.448c-0.007,12.879,5.106,25.232,14.212,34.339
		c9.107,9.107,21.46,14.22,34.339,14.212h66.207V512H0v-52.966h66.207c12.879,0.007,25.232-5.106,34.339-14.212
		s14.22-21.46,14.212-34.339v-79.448c0.007-12.879-5.106-25.233-14.212-34.339c-9.107-9.107-21.46-14.22-34.339-14.212H0v-52.966
		h282.483v52.966h-66.207c-12.879-0.007-25.233,5.106-34.339,14.212C172.83,305.802,167.717,318.156,167.724,331.034z"/>
	<g>
		<path style="fill:#95A5A5;" d="M211.862,423.28c-2.348,0.023-4.607-0.9-6.267-2.56c-1.66-1.66-2.583-3.919-2.56-6.267
			c0-4.875,3.952-8.828,8.828-8.828c4.875,0,8.828,3.952,8.828,8.828c0.023,2.348-0.9,4.607-2.56,6.267
			C216.469,422.38,214.21,423.303,211.862,423.28L211.862,423.28z"/>
		<path style="fill:#95A5A5;" d="M238.345,395.56c-3.533,0.001-6.727-2.105-8.117-5.354c-1.391-3.248-0.71-7.013,1.729-9.569
			l8.828-9.25c2.177-2.282,5.407-3.229,8.472-2.485c3.065,0.745,5.5,3.068,6.388,6.095c0.888,3.027,0.093,6.297-2.084,8.58
			l-8.828,9.25C243.068,394.576,240.759,395.564,238.345,395.56L238.345,395.56z"/>
		<path style="fill:#95A5A5;" d="M273.655,358.569c-3.533,0.001-6.727-2.105-8.117-5.354c-1.391-3.248-0.71-7.013,1.729-9.569
			l8.828-9.25c3.366-3.528,8.955-3.659,12.483-0.293c3.528,3.366,3.659,8.955,0.293,12.483l-8.828,9.25
			C278.379,357.584,276.069,358.572,273.655,358.569L273.655,358.569z"/>
		<path style="fill:#95A5A5;" d="M308.966,321.578c-3.533,0.001-6.727-2.105-8.117-5.354c-1.391-3.248-0.71-7.013,1.729-9.569
			l8.828-9.25c3.366-3.528,8.955-3.659,12.483-0.293c3.528,3.366,3.659,8.955,0.293,12.483l-8.828,9.25
			C313.689,320.593,311.379,321.581,308.966,321.578z"/>
		<path style="fill:#95A5A5;" d="M344.276,284.586c-3.533,0.001-6.727-2.105-8.117-5.354c-1.391-3.248-0.71-7.013,1.729-9.569
			l8.828-9.25c3.366-3.528,8.955-3.659,12.483-0.293c3.528,3.366,3.659,8.955,0.293,12.483l-8.828,9.25
			C348.999,283.602,346.69,284.59,344.276,284.586L344.276,284.586z"/>
		<path style="fill:#95A5A5;" d="M379.586,247.612c-2.359-0.008-4.616-0.962-6.268-2.647c-1.674-1.616-2.601-3.855-2.56-6.181
			c-0.021-3.586,2.13-6.829,5.442-8.204c3.312-1.375,7.127-0.61,9.653,1.937c1.625,1.684,2.542,3.927,2.56,6.268
			c0.039,2.326-0.888,4.564-2.56,6.181C384.203,246.65,381.945,247.604,379.586,247.612L379.586,247.612z"/>
	</g>
</g>
<g>
</g>
<g>
</g>
<g>
</g>
<g>
</g>
<g>
</g>
<g>
</g>
<g>
</g>
<g>
</g>
<g>
</g>
<g>
</g>
<g>
</g>
<g>
</g>
<g>
</g>
<g>
</g>
<g>
</g>
</svg>
