<?xml version="1.0" encoding="iso-8859-1"?>
<!-- Generator: Adobe Illustrator 19.0.0, SVG Export Plug-In . SVG Version: 6.00 Build 0)  -->
<svg version="1.1" id="Capa_1" xmlns="http://www.w3.org/2000/svg" xmlns:xlink="http://www.w3.org/1999/xlink" x="0px" y="0px"
	 viewBox="0 0 512.001 512.001" style="enable-background:new 0 0 512.001 512.001;" xml:space="preserve">
<path style="fill:#86C42B;" d="M512,437c0-8.291-6.709-15-15-15s-15,6.709-15,15v23.789l-65.395-65.395
	c-5.859-5.859-15.352-5.859-21.211,0s-5.859,15.352,0,21.211L460.789,482H437c-8.291,0-15,6.709-15,15s6.709,15,15,15h60
	c1.952,0,3.895-0.396,5.728-1.154c3.673-1.52,6.599-4.446,8.119-8.119c0.758-1.833,1.154-3.776,1.154-5.728L512,437L512,437z"/>
<path style="fill:#1689FC;" d="M419.433,220.626l-34.526-1.188l-111.563,45L256,286l-20.625,27.188v136.875L256,481
	c1.89,0,3.779-0.352,5.566-1.069l150-60C417.265,417.646,421,412.138,421,406V226C421,224.248,420.203,222.418,419.433,220.626z"/>
<path style="fill:#A7E340;" d="M116.605,395.395c-5.859-5.859-15.352-5.859-21.211,0L30,460.789V437c0-8.291-6.709-15-15-15
	S0,428.71,0,437v60c0,8.165,6.693,15,15,15h60c8.291,0,15-6.709,15-15s-6.709-15-15-15H51.211l65.395-65.395
	C122.465,410.746,122.465,401.254,116.605,395.395z"/>
<path style="fill:#FF281D;" d="M249.906,262.563l-126.094-48.75l-31.047,6.894C92.014,222.461,91,224.169,91,226v180
	c0,6.138,3.735,11.646,9.434,13.931l150,60C252.221,480.648,254.11,481,256,481V286L249.906,262.563z"/>
<path style="fill:#A7E340;" d="M309.101,68.101c-6,5.7-15.3,5.7-21.301,0l-16.8-16.8V166c0,8.399-6.599,15-15,15s-15-6.601-15-15
	V51.301l-16.8,16.8c-6,5.7-15.3,5.7-21.301,0c-5.7-6-5.7-15.3,0-21.301L245.5,4.501C248.2,1.5,252.1,0,256,0s7.8,1.5,10.499,4.501
	L309.101,46.8C314.801,52.8,314.801,62.1,309.101,68.101z"/>
<path style="fill:#FFDA45;" d="M419.5,220.6L256,286L92.8,220.6c1.5-3.6,4.2-7.202,7.5-8.401l150-60c1.8-0.601,3.9-1.199,5.7-1.199
	c1.8,0,3.9,0.599,5.7,1.199l150,60c0.3,0,0.601,0.601,0.899,0.601C416.201,214.6,418.001,217.599,419.5,220.6z"/>
<path style="fill:#86C42B;" d="M309.101,68.101c-6,5.7-15.3,5.7-21.301,0l-16.8-16.8V166c0,8.399-6.599,15-15,15V0
	c3.9,0,7.8,1.5,10.499,4.501L309.101,46.8C314.801,52.8,314.801,62.1,309.101,68.101z"/>
<path style="fill:#FFBC36;" d="M419.5,220.6L256,286V151c1.8,0,3.9,0.599,5.7,1.199l150,60c0.3,0,0.601,0.601,0.899,0.601
	C416.201,214.6,418.001,217.599,419.5,220.6z"/>
<g>
</g>
<g>
</g>
<g>
</g>
<g>
</g>
<g>
</g>
<g>
</g>
<g>
</g>
<g>
</g>
<g>
</g>
<g>
</g>
<g>
</g>
<g>
</g>
<g>
</g>
<g>
</g>
<g>
</g>
</svg>
