<svg id="Capa_1" enable-background="new 0 0 510 510" height="512" viewBox="0 0 510 510" width="512" xmlns="http://www.w3.org/2000/svg"><g><path d="m510 330c0-27.906-19.15-51.424-45-58.102v-16.898c0-19.555-12.541-36.227-30-42.42v-115.08c0-53.762-43.738-97.5-97.5-97.5s-97.5 43.738-97.5 97.5v315c0 37.22-30.28 67.5-67.5 67.5s-67.5-30.28-67.5-67.5v-115.08c17.459-6.192 30-22.865 30-42.42v-16.898c25.85-6.678 45-30.195 45-58.102v-120h-30v-60h-120v60h-30v120c0 27.906 19.15 51.424 45 58.102v16.898c0 19.555 12.541 36.228 30 42.42v115.08c0 53.762 43.738 97.5 97.5 97.5s97.5-43.738 97.5-97.5v-315c0-37.22 30.28-67.5 67.5-67.5s67.5 30.28 67.5 67.5v115.08c-17.459 6.192-30 22.865-30 42.42v16.898c-25.85 6.678-45 30.195-45 58.102v120h30v60h120v-60h30zm-420-60c-8.271 0-15-6.728-15-15v-15h30v15c0 8.272-6.729 15-15 15zm-30-240h60v30h-60zm90 60v30h-120v-30zm-120 90v-30h120v30c0 16.542-13.458 30-30 30h-60c-16.542 0-30-13.458-30-30zm390 60c8.272 0 15 6.729 15 15v15h-30v-15c0-8.271 6.728-15 15-15zm-30 60h60c16.542 0 30 13.458 30 30v30h-120v-30c0-16.542 13.458-30 30-30zm60 180h-60v-30h60zm-90-60v-30h120v30z"/></g></svg>