<?xml version="1.0" encoding="UTF-8" standalone="no"?>
<svg
   width="512"
   height="512"
   viewBox="0 0 384 384.00071"
   class="displayed_equation"
   version="1.1"
   id="svg6558"
   sodipodi:docname="probe.svg"
   inkscape:version="1.2.1 (9c6d41e410, 2022-07-14)"
   xmlns:inkscape="http://www.inkscape.org/namespaces/inkscape"
   xmlns:sodipodi="http://sodipodi.sourceforge.net/DTD/sodipodi-0.dtd"
   xmlns="http://www.w3.org/2000/svg"
   xmlns:svg="http://www.w3.org/2000/svg">
  <sodipodi:namedview
     id="namedview6560"
     pagecolor="#ffffff"
     bordercolor="#000000"
     borderopacity="0.25"
     inkscape:showpageshadow="2"
     inkscape:pageopacity="0.0"
     inkscape:pagecheckerboard="0"
     inkscape:deskcolor="#d1d1d1"
     showgrid="false"
     inkscape:zoom="1.7103436"
     inkscape:cx="273.62923"
     inkscape:cy="228.3167"
     inkscape:window-width="2400"
     inkscape:window-height="1271"
     inkscape:window-x="2391"
     inkscape:window-y="-9"
     inkscape:window-maximized="1"
     inkscape:current-layer="svg6558" />
  <defs
     id="defs6504">
    <clipPath
       id="svg104153218549tikz_00001a">
      <path
         d="M 62,15.738281 H 88 V 65 H 62 Z m 0,0"
         id="path6492" />
    </clipPath>
    <clipPath
       id="svg104153218549tikz_00001b">
      <path
         d="M 47,15.738281 H 79 V 46 H 47 Z m 0,0"
         id="path6495" />
    </clipPath>
    <clipPath
       id="svg104153218549tikz_00001c">
      <path
         d="m 187,81 h 33 v 34.97266 h -33 z m 0,0"
         id="path6498" />
    </clipPath>
    <clipPath
       id="svg104153218549tikz_00001d">
      <path
         d="m 228,91 h 33 v 24.97266 h -33 z m 0,0"
         id="path6501" />
    </clipPath>
    <clipPath
       id="svg104153218549tikz_00019d">
      <path
         d="M 83,28.964844 H 93 V 40 H 83 Z m 0,0"
         id="path16595" />
    </clipPath>
    <clipPath
       id="svg104153218549tikz_00019c">
      <path
         d="m 193,190 h 56.14844 v 48 H 193 Z m 0,0"
         id="path16592" />
    </clipPath>
    <clipPath
       id="svg104153218549tikz_00019b">
      <path
         d="m 27,266 h 3 v 1.39453 h -3 z m 0,0"
         id="path16589" />
    </clipPath>
    <clipPath
       id="svg104153218549tikz_00019a">
      <path
         d="M 15.734375,190 H 17 v 2 h -1.265625 z m 0,0"
         id="path16586" />
    </clipPath>
  </defs>
  <g
     id="g18083"
     transform="matrix(1.5862042,0,0,1.5176477,-148.24557,-64.355204)">
    <g
       clip-path="url(#svg104153218549tikz_00019a)"
       id="g16602"
       transform="matrix(1.0000023,0,0,1.0000023,77.821914,26.351039)">
      <path
         d="m 16.492188,190.21875 c -0.257813,0.25 -0.507813,0.375 -0.757813,0.625 -0.125,0.12891 0,0.25 0.128906,0.25 0.371094,-0.12109 0.628907,-0.25 1,-0.5 -0.121093,-0.125 -0.25,-0.25 -0.371093,-0.375 z m 0,0"
         id="path16600" />
    </g>
    <g
       clip-path="url(#svg104153218549tikz_00019b)"
       id="g16606"
       transform="matrix(1.0000023,0,0,1.0000023,77.821914,26.351039)">
      <path
         d="m 29.039063,266.01172 c -0.375,0.2539 -0.625,0.625 -1.003907,1.0039 -0.25,0.25 0,0.62891 0.378907,0.50782 0.371093,-0.25782 0.875,-0.50782 1.253906,-0.75782 -0.257813,-0.375 -0.507813,-0.625 -0.628906,-0.7539 z m 0,0"
         id="path16604" />
    </g>
    <path
       d="m 123.92358,274.92192 c 0.25,-0.8789 0.37891,-1.88281 0.37891,-2.88672 0,-1.00781 -0.12891,-2.00391 -0.12891,-3.13673 0,-0.12109 -0.12109,-0.12109 -0.12109,0 0,1.13282 -0.12891,2.25783 -0.25,3.38673 -0.12891,1.13282 -0.375,2.25782 -0.75391,3.26564 -0.75781,1.88281 -2.13282,3.38672 -3.51563,4.89063 -1.375,1.51172 -2.88673,3.01563 -4.39064,4.39064 -1.50391,1.51172 -3.01172,2.88672 -4.64454,4.27345 -0.75391,0.625 -1.50391,1.2539 -2.25782,2.0039 -0.5,0.375 -1.00781,0.75391 -1.37891,1.13281 0.25,0.25 0.3711,0.50001 0.62891,0.62501 0.62891,-0.50391 1.125,-1.00391 1.75391,-1.50391 0.87891,-0.75391 1.75391,-1.63281 2.63673,-2.38672 3.14063,-2.88673 6.27736,-6.02736 9.15627,-9.28518 0.75781,-0.87501 1.51172,-1.63282 2.01172,-2.63673 l 0.12891,-0.12109 c 0.25,-0.50781 0.625,-1.13281 0.74609,-2.01173 z m 0,0"
       id="path16608"
       style="stroke-width:1" />
    <path
       d="m 162.32992,249.57422 c -0.25,1.2539 -0.62891,2.51171 -1.13672,3.63671 4.27345,-0.6289 8.41408,-1.63281 12.42972,-3.13671 0.875,-0.37891 1.88281,-0.87891 2.37891,-1.75392 0.50781,-0.75781 0.62891,-1.76172 0,-2.51172 -0.625,-0.75391 -1.62891,-1.00391 -2.50782,-1.25392 -1.12891,-0.25 -2.26172,-0.5039 -3.38673,-0.5039 -1.25391,-0.125 -2.38281,-0.125 -3.63672,0 -1.25391,0.125 -2.38673,0.375 -3.64454,0.625 0.1289,0.88282 0.1289,1.88282 -0.1211,2.76563 -0.1289,0.87891 -0.2539,1.50391 -0.375,2.13283 z m 0,0"
       fill="#ffd9c0"
       id="path16610"
       style="stroke-width:1" />
    <path
       d="m 211.89644,190.0897 v 0.125 c 0,0.12891 -0.12891,0.25 -0.12891,0.25 0,0.12891 -0.12109,0.12891 -0.12109,0.25 -0.12891,0.25781 -0.12891,0.37891 -0.25391,0.50781 0,-0.3789 0,-0.75781 0.125,-1.13281 0,-0.375 0.12891,-0.62891 0.25,-1 0.12891,-0.25781 0.25,-0.50781 0.37891,-0.75781 0.50001,-1.00392 1.12501,-1.87892 1.88282,-2.63673 1.63281,-1.625 3.63673,-2.87892 5.77345,-3.76564 2.38282,-1.125 4.76563,-2.0039 7.02346,-3.25782 1.13281,-0.6289 2.13281,-1.5039 3.26563,-2.25781 1.12891,-0.87891 2.26172,-1.50782 3.51563,-1.88282 2.76172,-0.87891 5.51955,-1.50391 8.27736,-2.13282 2.76173,-0.6289 5.64846,-1.25781 8.53518,-1.88282 2.88672,-0.5039 5.64844,-0.8789 8.53517,-1.38281 2.63282,-0.37891 5.26954,-0.87891 7.53127,-2.26172 2.13281,-1.25392 4.01173,-3.25782 4.26173,-5.76564 0.25,-2.01172 -0.625,-4.01564 -2.12892,-5.14845 -3.14062,-1.88281 -7.03126,-1.75391 -10.53908,-1.50391 -5.90626,0.375 -11.6719,0.75391 -17.57035,1.00391 -2.88673,0.12109 -5.77735,0.25 -8.53518,0.6289 -2.88673,0.2461 -5.64454,1.00391 -8.53517,1.62891 -5.64454,1.37892 -11.293,2.76173 -17.06645,4.13673 -3.14063,0.75782 -6.39845,1.51173 -9.53517,2.26173 -1.63283,0.3789 -3.13673,0.7539 -4.76955,1.13281 -1.00391,0.25 -2.01172,0.5 -2.88672,0.75 -0.87891,0.25 -1.88282,0.50391 -2.88673,0.62501 -1.75782,0.37891 -3.38672,0.62891 -5.14454,0.87891 -1.63282,0.25781 -3.26564,0.25781 -4.89845,0.5039 -0.7461,0.125 -1.375,0.25 -2.12891,0.5 -0.37891,0.12891 -0.75,0.25 -1.00782,0.37891 -0.12109,0.12891 -0.37109,0.25 -0.5,0.25 h -0.125 c -0.125,1.38281 -0.25,2.75782 -0.25,4.14454 0.50391,3.26173 2.00782,6.39846 3.26563,9.53908 1.75391,4.39064 2.37891,9.15237 1.88282,13.80081 -0.25,2.63283 -0.87891,5.14456 -1.88282,7.65237 -0.1289,0.25 -0.3789,0.1289 -0.3789,-0.1211 0.7539,-2.26171 1.25391,-4.64844 1.38281,-7.03126 0.25,-2.37891 0.1211,-4.76955 -0.1289,-7.15236 -0.37891,-2.38673 -0.87501,-4.64063 -1.75391,-6.77736 -1.00391,-2.63282 -2.50782,-5.26954 -3.01564,-8.03127 -0.5,-2.63672 -0.12109,-5.39454 0.37891,-8.02736 0.5,-2.63673 1.125,-5.39845 1.88282,-8.03517 0.75391,-2.88673 1.50391,-5.76955 2.37891,-8.65627 0.88672,-2.88673 1.88282,-5.64845 2.89063,-8.28518 1.00391,-2.63282 2.00782,-5.39845 2.38672,-8.27736 0.3711,-2.76564 0.25,-5.52736 -0.1289,-8.15627 -0.37891,-2.76564 -1.00391,-5.39845 -1.88282,-8.15627 -0.7539,-2.76954 -1.75391,-5.39845 -3.00782,-7.91018 -1.38281,-2.63672 -3.39454,-4.89845 -6.15236,-6.27345 -1.25391,-0.62891 -2.51172,-1.00391 -3.88672,-1.00391 -1.13282,-0.12891 -2.26173,0.125 -3.26564,0.375 1.25391,0.37891 2.51173,0.87891 3.51564,1.63282 0.6289,0.37109 1.25391,0.87891 1.88281,1.37891 0.625,0.50391 1.12501,1.00391 1.12501,1.75781 0.1289,0.87891 -0.1211,1.75782 -0.1211,2.63282 -0.1289,0.87891 -0.2539,1.76173 -0.37891,2.75782 -0.25,1.88282 -0.5039,3.64454 -0.875,5.52736 -0.1289,0.87891 -0.3789,1.75391 -0.6289,2.75782 -0.12891,0.75781 -0.37501,1.50781 -0.75391,2.13282 -0.62891,1.13281 -2.01173,2.01172 -3.26563,1.50391 -0.62891,-0.25 -1.00001,-0.625 -1.25391,-1.25391 -0.50001,3.26563 -3.14064,6.02736 -5.14455,8.53518 -1.13281,1.50391 -2.12891,3.13672 -3.01563,4.76954 1.63282,0.37891 3.26563,1.25391 4.52345,2.50781 0.125,0.12891 0,0.25 -0.12891,0.12891 -1.37891,-1.00391 -2.88282,-1.75781 -4.64063,-2.00781 -0.37891,0.875 -0.75001,1.63281 -1.12891,2.50781 h 0.12109 c 1.13282,0.50001 2.26173,1.12892 3.26563,1.75392 0.50001,0.3789 1.00391,0.6289 1.63282,1.00781 0.5,0.25 1.00391,0.625 1.375,1.0039 0,0.12891 0,0.12891 -0.12109,0.12891 -0.625,-0.12891 -1.00391,-0.50781 -1.50391,-0.88281 -0.50391,-0.3711 -1.00391,-0.62891 -1.63282,-0.87891 -1.13281,-0.6289 -2.25781,-1.125 -3.38672,-1.63281 -0.37891,0.88281 -0.625,1.88281 -1.00391,2.76562 0.25,0 0.625,0.25 0.875,0.3711 0.25,0.1289 0.62891,0.3789 0.87891,0.50781 0.62891,0.375 1.13281,0.7461 1.76172,1.00392 0.25,0.12109 0,0.37109 -0.25781,0.37109 -0.62891,-0.25 -1.25391,-0.62891 -1.75391,-0.87892 -0.25,-0.12109 -0.62891,-0.24609 -0.87891,-0.49609 -0.125,-0.12891 -0.24609,-0.12891 -0.375,-0.25 -0.12891,-0.12891 -0.25,-0.12891 -0.37891,-0.25781 -1.25391,3.89454 -2.13282,7.78517 -3.38672,11.6719 -1.38282,4.39064 -3.38673,8.66408 -5.39846,12.80081 -1.2539,2.38672 -2.38281,4.64845 -3.63672,7.02736 -0.25,0.37891 -0.375,0.87891 -0.625,1.25782 -0.37891,1.125 -1.00782,2.12891 -1.50782,3.13672 -0.375,0.75391 -0.75391,1.38282 -1.13281,2.01173 -0.1211,0.24609 -0.25,0.49609 -0.375,0.74609 l -0.1211,0.12891 c -0.25,0.3789 -0.50781,0.8789 -0.87891,1.2539 -1.88281,2.63283 -3.89454,5.26955 -6.15236,7.65237 -4.76954,5.14844 -10.28908,9.41017 -16.06644,13.43362 -3.00782,2.12892 -6.01564,4.13282 -9.15236,6.01565 -1.38282,1.00781 -2.76564,2.01171 -4.144544,3.01562 -1.382817,1.00782 -2.75782,1.88282 -4.269542,2.76173 4.019541,4.26173 5.902356,10.28908 6.402356,16.06254 0.5,6.27345 -0.3789,12.6719 -0.75391,18.94535 -0.499996,7.53127 -0.37109,15.18754 0.37501,22.7149 0.6289,6.27736 2.01172,12.80081 6.02735,17.57035 0.4961,-0.37891 0.87501,-0.75391 1.38282,-1.12891 0.74609,-0.625 1.50391,-1.2539 2.25391,-2.00781 1.50782,-1.38282 3.13673,-2.76173 4.64845,-4.26564 1.50391,-1.51172 3.00782,-2.88672 4.39063,-4.39063 1.37501,-1.51173 2.87892,-3.01564 3.50782,-4.89846 0.37891,-1.0039 0.62891,-2.13281 0.75391,-3.25781 0.12891,-1.13282 0.25,-2.26173 0.25,-3.39454 0,-0.1211 0.12891,-0.1211 0.12891,0 0,1.0039 0.12109,2.01172 0.12109,3.13673 0,1.0039 -0.12109,1.88281 -0.37109,2.88672 -0.25391,0.87891 -0.50391,1.63282 -1.00391,2.26172 0.62891,-0.25 1.375,-0.3789 2.00391,-0.5 0.75391,-0.1289 1.51172,-0.2539 2.26173,-0.3789 1.50391,-0.25 2.88672,-0.50391 4.39063,-0.75392 2.88673,-0.5 5.89845,-0.8789 8.78518,-1.375 2.75782,-0.50781 5.52345,-1.00781 8.15627,-2.01172 2.50781,-1.00391 4.76954,-2.26173 7.03126,-3.63673 2.50782,-1.63282 4.89064,-3.39454 7.27736,-5.14844 l 0.1211,-0.12891 c -0.25,-0.9961 -0.4961,-2.00392 -0.4961,-3.00782 -0.12891,-2.75782 1.125,-5.39845 3.51173,-6.77346 0.37109,-0.25781 0.87891,-0.37891 1.25781,-0.62891 -2.26172,0.5 -4.52344,1 -6.90236,1.25392 -0.25781,0 -0.3789,-0.25392 -0.3789,-0.50392 -1.50391,-0.3789 -2.38673,-1.88281 -2.76173,-3.25781 -0.50391,-1.88282 -0.2539,-3.89454 0.375,-5.77736 0.125,-0.375 0.25391,-0.75391 0.375,-1.00391 -1.375,1.38281 -2.75781,2.63673 -4.26173,3.64454 -0.1289,0.1211 -0.25,-0.1289 -0.1289,-0.25781 0.875,-0.87891 1.76172,-1.75391 2.63672,-2.50782 0.87891,-0.87891 1.63282,-1.75781 2.51173,-2.76172 1.63281,-1.88282 3.13672,-3.88673 4.51173,-5.89455 2.76563,-4.14454 4.89845,-8.53518 6.53126,-13.17972 0.87891,-2.63672 1.75391,-5.26954 2.13282,-7.90627 0,-0.12109 0.12109,0 0.12109,0 -0.37109,2.51173 -0.75,4.89846 -1.375,7.40627 -0.62891,2.38282 -1.50782,4.76564 -2.64063,7.02736 -1.375,3.01564 -3.13673,6.02345 -5.14064,8.66018 1.12891,-0.75391 2.38282,-1.25391 3.63673,-1.76173 2.26172,-0.74609 4.64063,-1.125 6.90236,-1.7539 1.75391,-0.50391 3.51563,-1.00391 5.14845,-1.63282 0.3711,-0.87501 0.75,-1.88282 1.125,-2.88673 0.25,-1.125 0.5,-2.13282 0.75782,-3.25782 0.5,-2.01172 0.875,-4.14454 1.5039,-6.15235 1.25392,-3.88673 3.13673,-7.40237 5.64846,-10.53909 1.375,-1.76172 2.88672,-3.38672 4.51173,-4.89845 0.1289,-0.1211 0.1289,0 0.1289,0.1289 -2.88672,2.88673 -5.14844,6.27346 -7.03127,9.7891 -0.875,1.7539 -1.625,3.63672 -2.2539,5.51954 -0.62501,2.00781 -1.13282,4.01173 -1.51173,6.02345 -0.49609,2.01172 -0.99609,4.14454 -1.87891,5.89845 0.375,-0.12109 0.75391,-0.25001 1.13282,-0.50001 4.64063,-1.88281 9.16017,-4.01563 14.05081,-5.26954 l 0.1289,-0.1289 c 0.1211,-0.12891 0.25,-0.25 0.3711,-0.37891 0,0 0,-0.12109 0.1289,-0.12109 1.38283,-1.51172 2.76173,-2.88673 4.14064,-4.39064 0.62891,-0.75781 1.37891,-1.51172 2.00391,-2.39063 0.25782,-0.375 0.62891,-0.7461 0.88672,-1.125 0.3711,-0.37891 0.7461,-0.75391 0.9961,-1.25391 0,-0.12891 0.1289,0 0.1289,0.12109 -0.25,0.37891 -0.5,0.88282 -0.7539,1.38282 -0.25,0.3789 -0.62891,0.7539 -0.87891,1.25391 -0.625,0.75781 -1.25391,1.63281 -1.88281,2.38281 -1.25392,1.51172 -2.37892,3.13673 -3.88673,4.51955 2.38281,-0.62891 4.76563,-1.00391 7.27345,-1.125 2.76563,0 5.52736,0.37109 8.03517,1.2539 0.125,0 0,0.1211 0,0.1211 -4.51954,-1.375 -9.66017,-0.87891 -14.17971,0.1289 -4.64455,1.12501 -9.03518,3.13673 -13.55472,4.89064 -2.26173,0.87891 -4.39064,1.88282 -6.65236,2.63673 -2.25391,0.75 -4.51564,1.3789 -6.77346,1.88281 -2.13281,0.50001 -4.39063,1.12891 -6.40235,2.26173 -1.75392,0.99609 -3.13673,2.50782 -4.13673,4.26173 -1.76173,3.01172 -3.01564,8.53517 0.75,10.66798 0.50391,-1.2539 1.00391,-2.50781 1.38281,-3.76562 0.1211,-0.75392 0.37891,-1.38282 0.37891,-2.13282 0.12109,-0.625 0.12109,-1.13282 0.25,-1.75782 0,-0.25 -0.12891,-0.62891 -0.25,-0.87891 0,-0.1211 0,-0.25 0.12109,-0.375 1.13282,-0.5 2.38673,-0.62891 3.51564,-0.87891 1.25391,-0.12109 2.50782,-0.25 3.76173,-0.12109 1.25781,0.12109 2.38281,0.25 3.63672,0.5 1.00782,0.25 2.01173,0.5 2.88673,1.125 1.76172,1.38282 1.00781,3.76563 -0.4961,4.89846 -0.8789,0.6289 -1.88281,1.0039 -3.01563,1.375 -0.87891,0.3789 -1.75391,0.6289 -2.76172,0.88671 1.13281,-0.1289 2.13281,-0.3789 3.26563,-0.50781 0.62891,-0.12109 1.37891,-0.12109 2.00391,-0.25 0.25781,0 0.62891,-0.1289 0.88281,-0.25 0.3711,-0.1289 0.75001,-0.1289 1.12891,-0.1289 2.75782,-0.375 5.51955,-0.625 8.28518,-0.7461 1.125,-0.1289 2.25391,-0.1289 3.50782,-0.1289 0.12891,-0.12891 0.25391,-0.37891 0.37891,-0.62891 0.125,-0.25001 0.25,-0.50001 0.375,-0.75392 0.25,-0.5 0.25,-1.1289 0.3789,-1.7539 0,-0.12891 0.25,-0.12891 0.25,0 0.12891,0.625 0,1.2539 -0.1289,1.88281 -0.1211,0.25 -0.25,0.62501 -0.3711,0.87501 0,0.12891 -0.1289,0.25 -0.2539,0.37891 1.38281,0 2.88672,-0.12891 4.26954,-0.37891 2.63282,-0.50001 5.26954,-1.37501 7.90627,-2.13282 2.63282,-0.625 5.26954,-1.125 8.02736,-1.25391 2.51172,-0.12891 4.89454,-0.37891 7.03126,-1.88282 3.88673,-2.63672 5.14064,-7.77736 4.39063,-12.1719 0,-0.37501 -0.125,-0.62501 -0.2539,-1.00391 0,0 0,0 -0.1211,-0.12891 -0.25,-0.37109 -0.25,-0.74609 -0.25,-1.25391 -0.1289,-0.5 -0.1289,-0.875 -0.25781,-1.375 -0.25,-0.87891 -0.49609,-1.76172 -0.74609,-2.64063 -0.62891,-1.75391 -1.38281,-3.38673 -2.39063,-5.01954 -0.9961,-1.63281 -2.00391,-3.13673 -3.25782,-4.64064 -0.62891,-0.7539 -1.13281,-1.38281 -1.76173,-2.13282 -0.37109,-0.50391 -1,-1.00391 -1.2539,-1.50391 -0.87891,-0.6289 -1.625,-1.38281 -2.13282,-2.50782 -0.50001,-1.13672 -0.50001,-2.51172 -0.62501,-3.76562 -0.125,-1.38283 -0.125,-2.76564 -0.125,-4.14454 0,-2.63673 0.25,-5.26956 0.87892,-7.77737 h 0.12109 c -0.5,4.64064 -0.75001,9.28127 0.12891,13.92581 0.25,1.13282 0.625,2.13283 1.50391,2.88673 0.7539,0.75391 1.76171,1.12891 2.63672,1.63281 1.75782,0.87891 3.63672,1.63282 5.64845,2.13283 3.88673,1.125 7.90627,1.88281 11.793,2.88672 2.01172,0.5 4.01564,1.125 6.02735,1.88282 2.12892,0.875 4.14064,1.7539 6.14455,2.63281 2.38672,1.00392 4.76955,1.87892 7.28127,2.38673 2.38672,0.5 4.89454,0.875 7.27736,1.125 0,0 0,-0.12109 0.12891,-0.12109 0,-0.375 0,-0.88282 0,-1.25391 0,-0.75391 0,-1.51173 0.12109,-2.26173 0.12891,-1.38281 0.37891,-2.88672 1.13281,-4.14063 0.1211,-0.12891 0.25,0 0.25,0.1289 -0.3789,1.37501 -0.7539,2.75782 -0.875,4.26173 0,0.75781 -0.1289,1.50782 0,2.26173 0,0.37891 0.1211,0.875 0.2461,1.25391 0.6289,0.25 1.1289,0.5 1.75781,0.8789 0.62501,0.375 1.25391,0.625 1.87891,1.00392 1.38282,0.6289 2.64063,1.375 4.01564,2.0039 2.64062,1.25391 5.39845,2.38673 8.28518,3.01564 2.88671,0.75 5.77735,1.12891 8.65627,0.87891 1.63281,-0.12891 3.26562,-0.5 4.51954,-1.38282 1.1289,-0.87891 1.88281,-2.13282 2.26172,-3.51173 0.625,-1.63282 1.125,-3.76172 0.25,-5.39454 -0.5,-0.87891 -2.13282,-2.51173 -3.13672,-2.39063 h -0.12891 c -0.12109,0 -0.12109,0 -0.12109,-0.1211 -0.87892,-0.3789 -1.76173,-0.625 -2.64064,-1.0039 -2.00391,-0.75781 -4.01173,-1.75392 -5.89454,-2.88673 -3.76563,-2.13281 -7.53127,-4.39454 -11.4219,-6.52735 -7.65237,-4.14064 -15.55864,-8.02737 -23.58991,-11.543 -5.77345,-2.50783 -11.67189,-5.01954 -17.56644,-6.78127 -1.76172,-0.5 -3.51563,-0.9961 -5.27736,-1.25391 -1.7539,-0.37109 -3.50782,-0.625 -5.26563,-0.875 -0.87891,-0.125 -1.63672,-0.25 -2.38283,-0.37891 -0.50781,0.62891 -0.50781,0.62891 -0.6289,0.62891 z m 0,0"
       fill="#ffcea9"
       id="path16612"
       style="stroke-width:1" />
    <path
       d="m 162.70492,103.24965 c 0,3.38673 0.1211,6.90236 0.1211,10.28909 l 0.1289,5.27736 c 0,1.375 -0.1289,3.00781 0.25,4.26172 0.25,0.62892 0.50001,1.12892 1.25391,1.25392 0.62891,0.1289 1.38282,-0.2461 1.88282,-0.75391 1.00781,-1.12501 1.12891,-2.87892 1.38282,-4.26173 0.6289,-3.26564 1.1289,-6.52736 1.5039,-9.79299 0,-0.4961 0.12501,-0.87501 0.12501,-1.37501 0.125,-0.62891 -0.12501,-1.00391 -0.50001,-1.51172 -0.6289,-0.625 -1.25781,-1.125 -1.88281,-1.50391 -0.62891,-0.37891 -1.38282,-0.87891 -2.13282,-1.25391 -0.75391,-0.12109 -1.50391,-0.37891 -2.13282,-0.62891 z m 5.76955,155.23084 c 0.1289,2.76562 -0.5,5.52344 -1.75391,8.03516 1.75391,0.12111 3.38672,-0.25 5.14063,-0.7539 1.76173,-0.5 3.51564,-1.12891 5.01955,-2.13282 1.38282,-0.8789 2.88672,-2.51173 2.38672,-4.26563 -0.375,-1.63282 -2.75782,-1.51172 -4.01173,-1.51172 -2.26172,0.12891 -4.51954,0.37891 -6.78126,0.62891 z m 0,0"
       fill="#ffd9c0"
       id="path16614"
       style="stroke-width:1" />
    <path
       d="m 188.55264,263.50003 c 2.38672,-0.87891 4.76954,-2.00392 6.90236,-3.25783 2.88672,-1.63281 5.77345,-3.26563 8.28517,-5.26954 2.50782,-2.01173 4.14063,-4.89844 4.89064,-8.03517 -1.25391,0.125 -2.50782,0.25 -3.76172,0.5039 -2.76173,0.5 -5.39846,1.25391 -8.03127,2.13283 -1.38282,0.3789 -2.63673,0.75 -4.01564,0.8789 -1.25391,0.125 -2.38673,0.125 -3.64063,0.2461 -0.125,0 -0.125,0 -0.25,0 -0.12891,0 -0.25,0 -0.37891,0 -3.25782,0.1289 -6.39455,0.3789 -9.53518,0.75781 -0.88281,0.12109 -1.75782,0.25 -2.50782,0.3789 -0.37891,0 -0.88281,0 -1.25391,0.1211 -0.3789,0 -0.75781,0.1289 -1.25781,0.1289 -1.50782,0.2461 -2.88673,0.625 -4.39064,0.875 -0.2539,0.12891 -0.50391,0.12891 -0.62891,0.12891 -0.375,0.12109 -0.7539,0.12109 -1.0039,0.25 -0.62501,0.25001 -1.25391,0.62501 -1.88282,1.00392 -1.13282,0.8789 -2.00782,2.13281 -2.38672,3.50782 -0.50001,1.76172 -0.25001,3.64453 0.2539,5.27735 0.125,0.625 0.375,1.25391 0.75,1.88282 0.12891,0.25 0.37891,0.625 0.62891,0.875 0.25,0.12109 0.50391,0.25 0.62891,0.5 1.25391,-2.50782 2.00782,-5.14064 2.25782,-7.90626 0,-0.1211 0,-0.3711 0.25,-0.3711 2.26172,-0.25781 4.51954,-0.50782 6.78126,-0.50782 1.37501,0 3.38673,-0.25 4.26173,1.25782 0.87891,1.50391 0,3.64064 -1.125,4.64064 -1.38282,1.38281 -3.39454,2.13672 -5.14845,2.76562 -0.25,0.1211 -0.62891,0.25 -0.87891,0.25 1.50782,-0.1289 2.89063,-0.25 4.39454,-0.3789 3.25782,-0.375 6.65236,-0.875 9.78908,-1.88282 0.50001,-0.125 1.00001,-0.25 1.37501,-0.5 0,-0.125 -0.12109,-0.2539 0,-0.375 1.25782,-1.63282 2.13282,-3.51563 2.26172,-5.52735 0,-0.1211 0.25,-0.1211 0.25,0 -0.12109,2.01172 -0.75,4.02344 -1.88281,5.64845 z m 0,0"
       fill="#ffcea9"
       id="path16616"
       style="stroke-width:1" />
    <path
       d="m 212.01753,189.5897 c -0.12109,0 -0.25,-0.12891 -0.37109,-0.12891 0,0.12891 0,0.12891 0,0.25391 0,0.125 0,0.125 0,0.25 h 0.12109 c 0.12891,-0.125 0.25,-0.25 0.25,-0.375 z m 8.66408,40.53525 c 0.1211,0.375 0.25,0.74609 0.25,1.2539 0.125,0.1211 0.37501,0 0.37501,-0.1289 0.125,-0.25 0.125,-0.62891 0,-1.00391 -0.12501,-0.5 -0.25001,-0.87891 -0.37501,-1.37891 0,0.37891 -0.1289,0.62891 -0.1289,1.00782 0,0.12109 -0.1211,0.12109 -0.1211,0.25 z m 0,0"
       id="path16618"
       style="stroke-width:1" />
    <path
       d="m 175.25573,257.98049 c -2.26172,0.1289 -4.51954,0.25 -6.65236,0.5 h -0.1289 c 0.1289,2.76562 -0.5,5.52344 -1.75391,8.03516 1.75391,0.12111 3.38672,-0.25 5.14063,-0.7539 1.76173,-0.5 3.51564,-1.12891 5.01955,-2.13282 1.38282,-0.8789 2.88672,-2.51173 2.38672,-4.26563 -0.375,-1.63282 -2.63672,-1.51172 -4.01173,-1.38281 z m -1.76172,-13.30473 c -1.12891,-0.25 -2.26172,-0.5 -3.38673,-0.5 -1.25391,-0.125 -2.38281,-0.125 -3.63672,0 -1.25391,0.1289 -2.38673,0.3789 -3.64454,0.62891 0.1289,0.875 0.1289,1.88282 -0.1211,2.75782 -0.1289,0.75781 -0.2539,1.38281 -0.375,2.01173 -0.25,1.2539 -0.62891,2.51171 -1.13672,3.63671 4.27345,-0.6289 8.41408,-1.63281 12.42972,-3.13671 0.875,-0.37891 1.88281,-0.87891 2.37891,-1.75392 0.50781,-0.75781 0.62891,-1.76172 0,-2.51172 -0.625,-0.625 -1.62891,-0.875 -2.50782,-1.13282 z m 31.50008,2.76563 c -2.75783,0.5 -5.39846,1.25391 -8.03518,2.13283 -1.375,0.3789 -2.62892,0.75 -4.01564,0.8789 -1.2539,0.125 -2.37891,0.125 -3.63672,0.2461 -0.125,0 -0.125,0 -0.25,0 -0.125,0 -0.25391,0 -0.375,0 -3.26564,0.1289 -6.40237,0.3789 -9.53909,0.75781 -0.8789,0.12109 -1.75391,0.25 -2.51172,0.3789 -0.37891,0 -0.87501,0 -1.25391,0.1211 -0.37891,0 -0.75,0.1289 -1.25391,0.1289 -1.50782,0.2461 -2.89063,0.625 -4.39454,0.875 -0.25,0.12891 -0.50001,0.12891 -0.62501,0.12891 -0.3789,0.12109 -0.75,0.12109 -1.00781,0.25 -0.625,0.25001 -1.25391,0.62501 -1.88282,1.00392 -1.125,0.8789 -2.00391,2.13281 -2.37891,3.50782 -0.5,1.76172 -0.25,3.64453 0.25,5.27735 0.125,0.625 0.375,1.25391 0.75391,1.88282 0.12109,0.25 0.37891,0.625 0.62891,0.875 0.25,0.12109 0.5,0.25 0.625,0.5 1.25781,-2.50782 2.00391,-5.14064 2.26172,-7.90626 0,-0.1211 0,-0.3711 0.25,-0.3711 2.25782,-0.25781 4.51173,-0.50782 6.77346,-0.50782 1.38281,0 3.38673,-0.25 4.26954,1.25782 0.87891,1.50391 0,3.64064 -1.13281,4.64064 -1.37501,1.38281 -3.38673,2.13672 -5.14064,2.76562 -0.25782,0.1211 -0.62891,0.25 -0.88282,0.25 1.50782,-0.1289 2.88673,-0.25 4.39064,-0.3789 3.26563,-0.375 6.65236,-0.875 9.78908,-1.88282 0.50782,-0.125 1.00782,-0.25 1.38282,-0.5 0,-0.125 -0.12891,-0.2539 0,-0.375 1.25391,-1.63282 2.13281,-3.51563 2.26172,-5.52735 0,-0.1211 0.25,-0.1211 0.25,0 -0.12891,2.01172 -0.75781,4.02344 -1.88281,5.64845 2.38281,-0.87891 4.76954,-2.00392 6.90236,-3.25783 2.88672,-1.63281 5.76563,-3.26563 8.27735,-5.26954 2.51173,-2.01173 4.14454,-4.89844 4.89846,-8.03517 -1.25392,0.125 -2.51173,0.25 -3.76563,0.5039 z m 15.93752,-16.06254 c 0.125,0.1211 0.37501,0 0.37501,-0.1289 0.125,-0.25 0.125,-0.62891 0,-1.00391 v 0.125 c 1.12891,4.52345 0.62891,9.41408 -2.63672,12.92972 -1.50391,1.63282 -3.51564,2.75782 -5.64845,3.13673 -1.25392,0.25 -2.62892,0.25 -3.88282,0.3789 -0.25782,2.75783 -1.63283,5.51564 -3.64454,7.52737 -1.125,1.1289 -2.51173,2.13281 -4.01564,2.88281 -1.50391,0.88282 -2.88673,1.75782 -4.39063,2.63673 -2.88673,1.63281 -5.89845,3.26563 -9.03518,4.39063 -3.26564,1.25782 -6.52346,1.88282 -9.91799,2.38283 -1.88282,0.25781 -3.76173,0.3789 -5.64455,0.50781 -1.88282,0.12109 -3.88673,0.24609 -5.89845,0.24609 -0.25,0 -0.37891,-0.125 -0.37891,-0.24609 -0.12109,0 -0.24609,0 -0.24609,0 -0.25,0 -0.37891,-0.12891 -0.37891,-0.37891 -0.5,0 -0.87891,-0.37891 -1.25391,-0.75782 -0.5,-0.37109 -0.75,-0.99609 -1,-1.50391 -0.12891,-0.12109 -0.12891,-0.375 -0.25781,-0.5 -4.26173,3.14064 -8.65627,6.39845 -13.54691,8.53518 -5.27735,2.25391 -11.1719,2.76173 -16.82035,3.63673 -1.63282,0.25 -3.25782,0.3789 -4.89064,0.6289 -0.8789,0.12891 -1.63281,0.25 -2.51172,0.37891 -0.875,0.12109 -1.63282,0.375 -2.50782,0.25 0,0 -0.12891,0 -0.12891,-0.12891 l 0.12891,-0.12109 c 0.62891,-0.25 1.375,-0.37891 2.00391,-0.50781 0.75391,-0.1211 1.51172,-0.25 2.26173,-0.3711 1.50391,-0.2539 2.88672,-0.5039 4.39063,-0.7539 2.88673,-0.50001 5.89845,-0.87892 8.78518,-1.38282 2.75782,-0.5 5.52345,-1 8.15627,-2.00391 2.50781,-1.00781 4.76954,-2.26173 7.03126,-3.64454 2.50782,-1.625 4.89064,-3.38673 7.27736,-5.14064 l 0.1211,-0.1289 c -0.25,-1.00391 -0.4961,-2.00392 -0.4961,-3.00783 -0.12891,-2.76172 1.125,-5.39844 3.51173,-6.78127 0.37109,-0.25 0.87891,-0.37109 1.25781,-0.6289 -2.26172,0.50781 -4.52344,1.00782 -6.90236,1.25782 -0.25781,0 -0.3789,-0.25 -0.3789,-0.5 -1.50391,-0.37892 -2.38673,-1.88282 -2.76173,-3.26563 -0.50391,-1.88283 -0.2539,-3.88673 0.375,-5.76956 0.125,-0.3789 0.25391,-0.7539 0.375,-1.0039 -1.375,1.38282 -2.75781,2.63673 -4.26173,3.63673 -0.1289,0.125 -0.25,-0.125 -0.1289,-0.25 0.875,-0.87891 1.76172,-1.75391 2.63672,-2.51173 0.87891,-0.875 1.63282,-1.75391 2.51173,-2.75781 1.63281,-1.88283 3.13672,-3.89455 4.51173,-5.89846 2.76563,-4.14064 4.89845,-8.53518 6.53126,-13.17581 0.87891,-2.63672 1.75391,-5.26954 2.13282,-7.90626 0,-0.12891 0.12109,0 0.12109,0 -0.37109,2.50781 -0.75,4.89063 -1.375,7.40235 -0.62891,2.38673 -1.50782,4.76954 -2.64063,7.02736 -1.375,3.01173 -3.13673,6.02736 -5.14064,8.65627 1.12891,-0.75 2.38282,-1.2539 3.63673,-1.75391 2.26172,-0.75391 4.64063,-1.125 6.90236,-1.75391 1.75391,-0.5039 3.51563,-1.0039 5.14845,-1.63281 0.3711,-0.875 0.75,-1.88282 1.125,-2.88673 0.25,-1.12891 0.5,-2.13281 0.75782,-3.26563 0.5,-2.00391 0.875,-4.13673 1.5039,-6.14845 1.25392,-3.89064 3.13673,-7.39846 5.64846,-10.53519 1.375,-1.76172 2.88672,-3.39453 4.51173,-4.89845 0.1289,-0.12109 0.1289,0 0.1289,0.12891 -2.88672,2.88673 -5.14844,6.27346 -7.03127,9.78909 -0.875,1.75391 -1.625,3.63672 -2.2539,5.51564 -0.62501,2.01172 -1.13282,4.01563 -1.51173,6.02735 -0.49609,2.00392 -0.99609,4.14064 -1.87891,5.89455 0.375,-0.125 0.75391,-0.25 1.13282,-0.49609 4.64063,-1.88282 9.16017,-4.02345 14.05081,-5.27736 l 0.1289,-0.1211 c 0.1211,-0.1289 0.25,-0.25 0.3711,-0.3789 0,0 0,-0.12891 0.1289,-0.12891 1.38283,-1.50391 2.76173,-2.87892 4.14064,-4.39064 0.62891,-0.75 1.37891,-1.5039 2.00391,-2.38281 0.25782,-0.37891 0.62891,-0.75391 0.88672,-1.12501 0.3711,-0.3789 0.7461,-0.75781 0.9961,-1.25781 0,-0.125 0.1289,0 0.1289,0.125 -0.25,0.375 -0.5,0.875 -0.7539,1.38281 -0.25,0.375 -0.62891,0.74611 -0.87891,1.25392 -0.625,0.75 -1.25391,1.63281 -1.88281,2.38281 -1.25392,1.50392 -2.37892,3.13673 -3.88673,4.51954 2.38281,-0.6289 4.76563,-1.00781 7.27345,-1.13281 2.76563,0 5.52736,0.375 8.03517,1.25391 0.125,0 0,0.1289 0,0.1289 -4.51954,-1.38281 -9.66017,-0.8789 -14.17971,0.125 -4.64455,1.12892 -9.03518,3.14064 -13.55472,4.89454 -2.26173,0.87501 -4.39064,1.88283 -6.65236,2.63673 -2.25391,0.75 -4.51564,1.375 -6.77346,1.88282 -2.13281,0.5 -4.39063,1.125 -6.40235,2.25391 -1.75392,1.00391 -3.13673,2.50782 -4.13673,4.26954 -1.76173,3.00782 -3.01564,8.53518 0.75,10.66799 0.50391,-1.25391 1.00391,-2.51172 1.38281,-3.76562 0.1211,-0.75392 0.37891,-1.38283 0.37891,-2.13283 0.12109,-0.625 0.12109,-1.13281 0.25,-1.76172 0,-0.24609 -0.12891,-0.625 -0.25,-0.875 0,-0.12891 0,-0.25001 0.12109,-0.37891 1.13282,-0.5 2.38673,-0.625 3.51564,-0.875 1.25391,-0.12891 2.50782,-0.25 3.76173,-0.12891 1.25781,0.12891 2.38281,0.25391 3.63672,0.50391 1.00782,0.25 2.01173,0.5 2.88673,1.12891 1.76172,1.38282 1.00781,3.76563 -0.4961,4.89845 -0.8789,0.625 -1.88281,0.9961 -3.01563,1.375 -0.87891,0.37891 -1.75391,0.62891 -2.76172,0.87891 1.13281,-0.1211 2.13281,-0.3711 3.26563,-0.5 0.62891,-0.12891 1.37891,-0.12891 2.00391,-0.25 0.25781,0 0.62891,-0.12891 0.88281,-0.25 0.3711,-0.12891 0.75001,-0.12891 1.12891,-0.12891 2.75782,-0.3789 5.51955,-0.625 8.28518,-0.7539 1.125,-0.1211 2.25391,-0.1211 3.50782,-0.1211 0.12891,-0.1289 0.25391,-0.3789 0.37891,-0.6289 0.125,-0.25 0.25,-0.50392 0.375,-0.75392 0.25,-0.5 0.25,-1.12891 0.3789,-1.75781 0,-0.125 0.25,-0.125 0.25,0 0.12891,0.6289 0,1.25781 -0.1289,1.88281 -0.1211,0.25001 -0.25,0.62892 -0.3711,0.87892 0,0.1289 -0.1289,0.25 -0.2539,0.3789 1.38281,0 2.88672,-0.1289 4.26954,-0.3789 2.63282,-0.5 5.26954,-1.38283 7.90627,-2.13283 2.63282,-0.6289 5.26954,-1.13281 8.02736,-1.2539 2.51172,-0.12891 4.89454,-0.37891 7.03126,-1.88283 3.88673,-2.63671 5.14064,-7.77735 4.39063,-12.17189 0,-0.37891 0,-0.75392 -0.125,-1.00392 z M 169.22837,109.52311 c 0,-0.4961 0.12501,-0.87501 0.12501,-1.37501 0.125,-0.62891 -0.12501,-1.00391 -0.50001,-1.51172 -0.6289,-0.625 -1.25781,-1.125 -1.88281,-1.50391 -0.62891,-0.37891 -1.38282,-0.87891 -2.13282,-1.25391 -0.62891,-0.25 -1.38282,-0.5 -2.13282,-0.75 0,3.38673 0.1211,6.90236 0.1211,10.28909 l 0.1289,5.26954 c 0,1.38281 -0.1289,3.00782 0.25,4.26563 0.25,0.62501 0.50001,1.13282 1.25391,1.25392 0.62891,0.125 1.38282,-0.25 1.88282,-0.75001 1.00781,-1.13281 1.12891,-2.88672 1.38282,-4.26954 0.6289,-3.13673 1.1289,-6.39845 1.5039,-9.66408 z m 98.63304,45.05479 c 0.50781,0.25 0.88281,0.5 1.25391,0.87891 1.25782,0.875 2.14063,2.50782 2.26173,4.01563 0.25,2.13282 -0.5,4.01173 -1.75391,5.77345 -1.38282,1.75392 -3.64454,3.00782 -5.64846,3.63673 -2.75781,0.87891 -5.64844,1.12891 -8.40627,1.63281 -5.90235,0.87501 -11.67189,2.26173 -17.44535,3.63673 -1.37891,0.37891 -2.89062,0.62891 -4.26563,1.13282 -1.38282,0.3711 -2.51172,1.12891 -3.64454,2.00391 -0.9961,0.75391 -2.12891,1.63281 -3.25782,2.26172 -1.13281,0.62501 -2.38673,1.25391 -3.64454,1.75391 -2.62892,1.13282 -5.26563,2.13672 -7.52736,3.89064 -1,0.75781 -1.88282,1.63281 -2.63282,2.64062 -0.375,0.49611 -0.75391,0.99611 -1.00391,1.50392 0,0.12109 0,0.12109 -0.12891,0.25 -0.12109,0 -0.25,-0.12891 -0.37109,-0.12891 0,0.12891 0,0.12891 0,0.25391 0,0.125 0,0.125 0,0.25 h 0.12109 v 0.125 c 0,0.125 -0.12109,0.25391 -0.12109,0.25391 0,0.12109 -0.12891,0.12109 -0.12891,0.25 -0.125,0.25 -0.125,0.3789 -0.25,0.5 0,-0.37891 0,-0.75 0.125,-1.12891 0,-0.375 0.125,-0.625 0.25391,-1.00391 0.12109,-0.25 0.25,-0.5 0.37109,-0.75391 0.50781,-1 1.13282,-1.88281 1.88282,-2.63281 1.63282,-1.63282 3.64455,-2.88673 5.77736,-3.76564 2.37891,-1.13281 4.76563,-2.00781 7.02736,-3.26563 1.12891,-0.625 2.13281,-1.50391 3.25781,-2.25782 1.13283,-0.8789 2.26173,-1.50391 3.51564,-1.88282 2.76173,-0.87891 5.51955,-1.50391 8.28518,-2.13281 2.76172,-0.62891 5.64845,-1.25391 8.52736,-1.88282 2.89063,-0.5 5.64845,-0.875 8.53518,-1.375 2.64063,-0.37891 5.26954,-0.88282 7.53127,-2.26172 2.1289,-1.25392 4.01563,-3.26564 4.26954,-5.77346 0.25,-2.00391 -0.62891,-4.01564 -2.14064,-5.14064 -3.13672,-1.88281 -7.01954,-1.76171 -10.53517,-1.51171 -5.89845,0.3789 -11.67191,0.7539 -17.57036,1.0039 -2.88673,0.12891 -5.77344,0.25 -8.53517,0.62891 -2.88673,0.25 -5.64454,1.0039 -8.53518,1.63281 -5.64454,1.38282 -11.293,2.75782 -17.06254,4.14064 -3.13673,0.75001 -6.40235,1.50391 -9.53908,2.26172 -1.63282,0.3711 -3.13673,0.75 -4.76954,1.125 -1.00001,0.25 -2.00392,0.5 -2.88282,0.75782 -0.88282,0.25 -1.87891,0.5 -2.88673,0.625 -1.75782,0.3711 -3.38672,0.62891 -5.14845,0.87891 -1.62891,0.25 -3.25782,0.25 -4.89064,0.5 -0.7539,0.125 -1.38281,0.25 -2.13281,0.50391 -0.375,0.12109 -0.75391,0.25 -1.00391,0.37109 -0.12891,0.12891 -0.37891,0.25782 -0.50391,0.25782 h -0.125 c -0.125,1.375 -0.24609,2.75782 -0.24609,4.13672 0.49609,3.26564 2.00391,6.40236 3.25782,9.53909 1.76172,4.39063 2.38672,9.16017 1.88281,13.80471 -0.25,2.63673 -0.8789,5.14456 -1.88281,7.65627 -0.1211,0.25 -0.37891,0.1211 -0.37891,-0.1289 0.75781,-2.25781 1.25391,-4.64064 1.38282,-7.02736 0.25,-2.38282 0.1289,-4.76564 -0.12891,-7.15236 -0.3711,-2.38282 -0.875,-4.64454 -1.75391,-6.77346 -1.00391,-2.64062 -2.50782,-5.26954 -3.00782,-8.03517 -0.50782,-2.63282 -0.12891,-5.39454 0.37109,-8.03126 0.50391,-2.63673 1.13282,-5.39455 1.88282,-8.02737 0.75391,-2.88673 1.51172,-5.77736 2.38672,-8.66408 0.87891,-2.88673 1.88282,-5.64846 2.88673,-8.27736 1,-2.64064 2.00391,-5.39845 2.38282,-8.28518 0.3789,-2.75782 0.25,-5.51954 -0.12891,-8.15627 -0.37109,-2.76173 -0.99609,-5.39845 -1.87891,-8.16018 -0.75,-2.75781 -1.75391,-5.39454 -3.01172,-7.90626 -1.38282,-2.62892 -3.38673,-4.89064 -6.14455,-6.27346 -1.25782,-0.6289 -2.51172,-1.00391 -3.89454,-1.00391 -1.125,-0.12109 -2.25782,0.12891 -3.26563,0.37501 1.25781,0.3789 2.51172,0.8789 3.51563,1.63281 0.62891,0.37891 1.25391,0.87891 1.88282,1.38282 0.6289,0.5 1.13281,1 1.13281,1.75391 0.1211,0.87891 -0.1289,1.75781 -0.1289,2.64063 -0.125,0.875 -0.25001,1.75391 -0.37501,2.75782 -0.25,1.88282 -0.5,3.63673 -0.8789,5.51954 -0.12891,0.87891 -0.37891,1.76172 -0.62891,2.76173 -0.125,0.7539 -0.375,1.50781 -0.75391,2.13672 -0.62891,1.12501 -2.00391,2.00391 -3.25782,1.50391 -0.62891,-0.25 -1.00781,-0.625 -1.25391,-1.25391 -0.50781,3.25782 -3.14063,6.02346 -5.14845,8.53519 -1.12891,1.5039 -2.13281,3.13671 -3.01172,4.76172 1.63281,0.37891 3.26172,1.25782 4.51563,2.51172 0.12891,0.125 0,0.25391 -0.12109,0.125 -1.38282,-1.0039 -2.89063,-1.7539 -4.64454,-2.00781 -0.37501,0.88281 -0.75391,1.63281 -1.13282,2.50781 h 0.12891 c 1.12891,0.50782 2.26172,1.13673 3.25782,1.76173 0.50781,0.37891 1.00781,0.62891 1.63281,1.00781 0.50782,0.2461 1.00782,0.625 1.38282,0.9961 0,0.1289 0,0.1289 -0.125,0.1289 -0.62891,-0.1289 -1.00782,-0.5 -1.50782,-0.8789 -0.5,-0.375 -1.00391,-0.625 -1.63281,-0.875 -1.12501,-0.62891 -2.25782,-1.13281 -3.38673,-1.63282 -0.375,0.87891 -0.625,1.88282 -1.00391,2.75782 0.25,0 0.62891,0.25 0.87891,0.3789 0.25391,0.1211 0.625,0.37891 0.88281,0.5 0.62501,0.37891 1.12501,0.75392 1.75392,1.00392 0.25,0.12891 0,0.37891 -0.25001,0.37891 -0.6289,-0.25 -1.25391,-0.62891 -1.76172,-0.87892 -0.25,-0.125 -0.625,-0.25391 -0.875,-0.50391 -0.12109,-0.12109 -0.25,-0.12109 -0.37891,-0.25 -0.12109,-0.1289 -0.25,-0.1289 -0.37109,-0.25 -1.25391,3.88673 -2.13673,7.78127 -3.39454,11.67191 -1.375,4.39063 -3.38673,8.65627 -5.39064,12.7969 -1.25391,2.38282 -2.38672,4.64454 -3.64454,7.02736 -0.24609,0.37501 -0.375,0.88282 -0.625,1.25391 -0.37891,1.13282 -1.00391,2.13672 -1.50391,3.13672 -0.37891,0.75392 -0.75781,1.38282 -1.12891,2.00782 -0.1289,0.25 -0.2539,0.5 -0.375,0.75782 l -0.12891,0.12109 c -0.25,0.37891 -0.5,0.87891 -0.8789,1.25391 -1.88282,2.64063 -3.89064,5.26955 -6.14455,7.66017 -4.76954,5.14064 -10.2969,9.41018 -16.06644,13.42581 -3.01563,2.13283 -6.02345,4.14064 -9.16018,6.02346 -1.38282,1.00391 -2.76173,2.00391 -4.144542,3.00781 -1.375003,1.00783 -2.757818,1.88283 -4.261727,2.76173 -0.128908,-0.12109 -0.250001,-0.25 -0.378908,-0.37109 1.25391,-1.13281 2.757819,-2.01173 4.144541,-3.01564 1.753906,-1.1289 3.511726,-2.26171 5.265636,-3.25782 h 0.12891 c 2.25391,-1.63281 4.51563,-3.26562 6.90236,-4.89845 2.88282,-2.13281 5.76954,-4.26563 8.52736,-6.52735 5.14845,-4.26173 9.91799,-8.91018 13.80472,-14.30081 1.00781,-1.51173 2.01172,-2.88673 3.01563,-4.51955 0,-0.12891 0.1211,-0.12891 0.1211,-0.25 0.50781,-1.25781 1.13281,-2.51172 1.76172,-3.64453 1.00391,-2.13283 2.13282,-4.13673 3.25782,-6.27346 2.14063,-4.13673 4.27345,-8.40627 5.77736,-12.80081 2.75781,-7.77736 3.89063,-16.31254 8.40627,-23.46489 1.38281,-2.12892 3.13672,-3.89064 4.64063,-6.02346 1.38282,-2.00391 2.51173,-4.39064 2.01172,-6.77345 0,-0.12891 0,-0.12891 0.12891,-0.25001 -0.12891,-1.51172 0,-2.88672 0,-4.39454 l -0.12891,-13.17581 c 0,-0.375 0.25,-0.50391 0.50001,-0.375 0,0 0,-0.12891 0.125,-0.12891 2.01172,-1.2539 4.64454,-1.1289 6.90236,-0.3789 2.38281,0.75781 4.51954,2.38672 6.02735,4.26954 1.75391,2.26172 3.00783,4.89454 3.88673,7.65236 0.88282,2.63672 1.75782,5.39845 2.25782,8.15627 1.13282,5.52735 1.38282,11.17191 -0.5,16.57035 -1.00391,2.88283 -2.25782,5.51954 -3.26564,8.40627 -1.0039,3.00783 -1.88281,6.02736 -2.75781,9.03518 -1.00391,3.89063 -2.13282,7.77736 -2.76173,11.6719 0.25,-0.1289 0.5,-0.25 0.87891,-0.3789 0.75391,-0.25 1.50391,-0.50001 2.26172,-0.50001 1.63282,-0.25391 3.25783,-0.375 4.76955,-0.50391 1.7539,-0.25 3.63672,-0.5 5.39063,-0.75 1.38282,-0.25391 2.88673,-0.50391 4.26954,-0.75391 0.5,-0.1289 0.87891,-0.25 1.37501,-0.3789 1.38281,-0.37891 2.89063,-0.75 4.27345,-1.00391 2.88672,-0.75 5.76563,-1.37891 8.53518,-2.13282 5.76563,-1.50391 11.54298,-2.88672 17.31253,-4.26564 2.76172,-0.7539 5.64455,-1.5039 8.53126,-1.88281 2.89064,-0.375 5.77737,-0.5039 8.78519,-0.7539 5.89845,-0.37891 11.9219,-0.75001 17.82035,-1.12501 2.63672,-0.12891 5.14845,-0.37891 7.78517,0 1.25392,0.87501 2.37892,1.12501 3.50782,1.62891 z m 0,0"
       id="path16620"
       style="stroke-width:1" />
    <path
       d="m 276.39659,234.51558 c 1.63282,0.25 3.13673,0.37891 4.76954,0.37891 1.63282,0 3.26563,-0.12891 4.76954,-0.75781 3.00782,-1.125 4.51564,-4.39064 4.89064,-7.40237 0.75782,-5.77345 -3.76563,-5.77345 -7.90626,-7.40626 -2.25392,-0.87501 -4.39064,-2.13282 -6.64456,-3.51563 -7.53127,-4.51173 -15.18753,-8.65627 -23.0938,-12.42191 -5.64844,-2.63673 -11.2969,-5.26563 -17.06254,-7.52736 0,-0.12891 -0.1289,-0.25 -0.25781,-0.25 -0.6289,-0.25 -1.2539,-0.50391 -1.88282,-0.75391 -0.62891,-0.25 -1.25391,-0.6289 -1.88281,-0.8789 -2.13283,-0.875 -4.51173,-1.50392 -6.77346,-2.13283 -1.75391,-0.5039 -3.51563,-1.0039 -5.26954,-1.2539 -1.75781,-0.37891 -3.38673,-0.50391 -5.14454,-0.75391 -0.87891,-0.125 -1.75782,-0.25 -2.51173,-0.37891 -0.1211,0 -0.25,0 -0.37891,-0.12109 -0.12109,0.12109 -0.12109,0.375 -0.25,0.5 0.12891,0 0.25,0 0.25,0 0.75782,0.25 1.63282,0.375 2.39064,0.375 1.7539,0.25 3.51173,0.5 5.26954,0.87891 1.75391,0.375 3.51173,0.7539 5.26563,1.2539 5.89846,1.76173 11.80081,4.26954 17.57036,6.78127 8.03517,3.50783 15.93754,7.40237 23.59381,11.543 3.89063,2.13281 7.52736,4.26564 11.42189,6.52345 1.88282,1.12891 3.76564,2.01173 5.89846,2.89063 0.875,0.375 1.7539,0.625 2.6289,1.00391 0,0.12109 0.12891,0.12109 0.12891,0.12109 h 0.12891 c 0.9961,-0.12109 2.75782,1.50391 3.13673,2.38673 0.875,1.62891 0.25,3.76563 -0.25782,5.39064 -0.5,1.25781 -1.125,2.64062 -2.2539,3.51563 -1.25392,1.00782 -2.88673,1.38282 -4.51954,1.38282 -2.88673,0.25 -5.89456,-0.125 -8.65627,-0.875 -2.88673,-0.75782 -5.52346,-1.76173 -8.28518,-3.01564 -1.38282,-0.62891 -2.63673,-1.25391 -4.01173,-2.00391 -0.62891,-0.3789 -1.25782,-0.62891 -1.88282,-1.00782 -0.62891,-0.25 -1.13281,-0.5039 -1.76172,-0.875 -0.12109,-0.3789 -0.12109,-0.88281 -0.25,-1.2539 -0.12109,-0.75782 0,-1.51172 0,-2.26173 0.12891,-1.50391 0.50781,-2.75782 0.87891,-4.26954 0,-0.1211 -0.125,-0.25 -0.25,-0.1211 -0.62891,1.25392 -0.87891,2.75782 -1.12891,4.14064 -0.12891,0.75001 -0.12891,1.50391 -0.12891,2.25391 0,0.37891 0,0.88282 0,1.25391 l -0.12109,0.12891 c -2.38673,-0.37891 -4.89845,-0.62891 -7.27736,-1.125 -2.51173,-0.50782 -4.89845,-1.38282 -7.28127,-2.39064 -2.01172,-0.875 -4.14064,-1.88281 -6.14455,-2.62891 -1.88282,-0.75781 -3.89454,-1.38282 -6.02735,-1.88282 -3.89063,-1.00781 -7.90627,-1.63281 -11.7969,-2.88672 -1.88283,-0.6289 -3.76564,-1.25782 -5.64845,-2.13282 -0.87892,-0.50781 -1.88282,-1.00781 -2.63282,-1.63281 -0.875,-0.75781 -1.25391,-1.76173 -1.50391,-2.88673 -0.88282,-4.64454 -0.62892,-9.28518 -0.12891,-13.93362 0,0 -0.12891,-0.1211 -0.12891,0 -0.625,2.51172 -0.875,5.14844 -0.875,7.78517 0,1.375 0.1289,2.76172 0.1289,4.13673 0.1211,1.25391 0.1211,2.50781 0.625,3.76564 0.37892,1.0039 1.12892,1.88281 2.13283,2.50781 0.3789,0.50781 0.8789,1.0039 1.2539,1.51172 0.62891,0.75001 1.25782,1.37501 1.75392,2.13282 1.13672,1.50391 2.26172,3.00782 3.26562,4.64063 1.00783,1.63282 1.75783,3.26564 2.38283,5.01955 0.25781,0.8789 0.50781,1.75391 0.75781,2.63672 0.125,0.5 0.125,0.87891 0.24609,1.37891 0.12891,0.375 0.12891,0.875 0.25,1.25391 0,0 0,0 0.12891,0.1289 -0.12891,-0.3789 -0.25,-0.75781 -0.25,-1.2539 0.12109,-0.12891 0.12109,-0.12891 0.12109,-0.25 0.12891,-0.37891 0.12891,-0.62891 0.12891,-1.00782 0.1289,0.37891 0.25,0.87891 0.3789,1.37891 0,-0.5 -0.1289,-0.87891 -0.25,-1.37891 -0.1289,-0.7539 -0.3789,-1.63282 -0.6289,-2.38672 -0.88281,-2.75782 -2.25781,-5.26955 -4.01954,-7.65236 -0.875,-1.25391 -1.75391,-2.38673 -2.76172,-3.51563 -0.375,-0.4961 -0.87501,-1.00392 -1.25392,-1.38283 0.25,0.12891 0.50781,0.25782 0.75781,0.37891 5.76956,2.76173 11.918,3.51564 18.06646,5.01955 2.13281,0.50781 4.14064,1.25391 6.15235,2.13281 2.13283,0.88282 4.26564,1.88283 6.39846,2.76564 4.39064,1.75391 8.91018,2.50781 13.55081,3.00781 0.12891,0.12891 0.5,0.12891 0.5,-0.125 0.50782,0.37501 1.13282,0.75392 1.76172,1.00392 0.75,0.3789 1.63282,0.875 2.38282,1.2539 1.63282,0.87891 3.26563,1.63282 4.89845,2.26172 3.88673,1.38283 6.90236,2.37892 10.16018,2.88673 z m -166.02382,-1.76172 c 0.375,7.53126 6.40236,13.05472 9.78909,19.45317 0.875,1.75782 1.75781,3.51563 1.88281,5.52345 0,0.1211 -0.125,0.1211 -0.25,0 -0.75781,-1.63282 -1.38281,-3.38672 -2.26172,-5.01955 -0.875,-1.63281 -1.88282,-3.13671 -2.88673,-4.64063 -2.00391,-3.01563 -4.01563,-6.15235 -5.39064,-9.53908 -0.75781,-1.88282 -1.25781,-3.89454 -1.38281,-5.89845 0.125,-0.12891 0.5,-0.12891 0.5,0.12109 z m 15.31254,15.81644 c 2.13281,1.38282 4.39454,2.50782 6.90236,3.26563 1.1289,0.3711 2.38281,0.7461 3.63672,0.9961 1.25391,0.25781 2.51173,0.3789 3.63673,0.75782 0.12891,0 0.12891,0.25 0,0.25 -1.25391,0 -2.50782,-0.25 -3.76563,-0.50001 -1.25391,-0.37891 -2.50782,-0.75781 -3.63673,-1.13281 -2.37891,-1 -4.64064,-2.13281 -6.77345,-3.63673 -0.12891,0 0,-0.12891 0,0 z m 59.9806,-43.79307 c 1.00391,-2.51172 2.13673,-4.89845 3.13673,-7.41017 1.00391,-2.37891 1.76172,-4.76955 2.26172,-7.27736 0.62501,-3.01173 0.62501,-6.01954 0.75391,-9.15627 0,-0.25781 0.37891,-0.25781 0.37891,0 0,2.62891 -0.12891,5.39064 -0.50781,8.02736 -0.37891,2.63672 -1.25392,5.14845 -2.13282,7.65626 -0.875,2.51173 -1.87891,4.89456 -2.88673,7.40237 -1.00391,2.51173 -2.00391,5.01954 -3.25782,7.40236 -0.6289,1.38281 -1.25391,2.63672 -1.88282,4.01954 -0.7539,1.37891 -1.51172,2.76172 -2.26172,4.01564 2.26172,-4.89845 4.26564,-9.78909 6.39845,-14.67973 z m -0.37109,-23.97271 c 0.875,1.50391 1.2539,3.38673 1.50391,5.01955 0.1211,0.8789 0.25,1.7539 0.37891,2.50782 0,0.8789 0,1.88281 0,2.76172 0,0.1289 -0.12891,0.1289 -0.12891,0 0,-0.87891 -0.25,-1.88282 -0.37891,-2.76172 -0.1211,-0.87501 -0.25,-1.62892 -0.375,-2.50782 -0.375,-1.75391 -1,-3.26564 -1.25782,-5.01955 -0.12109,0 0.25782,-0.1289 0.25782,0 z m -9.53909,-1.0039 c 1.88282,0.875 3.51173,2.25781 5.01955,3.76172 1.38281,1.38282 2.75782,3.14063 3.51172,4.89845 0,0.1211 -0.125,0.25 -0.24609,0.1211 -0.62891,-0.74611 -1.13281,-1.62892 -1.76173,-2.50782 -0.6289,-0.75 -1.25781,-1.50391 -2.0039,-2.26173 -1.51172,-1.375 -3.13673,-2.50782 -4.76955,-3.63672 -0.3789,-0.125 -0.1289,-0.5 0.25,-0.375 z m 30.24226,-8.66018 c 1,1.25781 2.00781,2.63281 2.76173,4.01563 0.37891,0.75782 0.75,1.38282 1.00391,2.13282 0.25,0.75391 0.75,1.50391 0.75,2.38673 0,0.125 -0.25,0.25 -0.37891,0.125 -0.37109,-0.62892 -0.5,-1.37892 -0.875,-2.13282 -0.37891,-0.75782 -0.62891,-1.50391 -1.12892,-2.26172 -0.7539,-1.37501 -1.5039,-2.88673 -2.50781,-4.14064 0.25,-0.125 0.375,-0.25 0.375,-0.125 z m 1.37891,-1.50391 c 0.5039,0.75 0.875,1.50391 1.13282,2.25391 0.12109,0.37891 0.37109,0.75781 0.5,1.13672 0.12891,0.25 0.12891,0.375 0.25,0.625 0,0.25 0.125,0.37891 0.125,0.62891 0,0.12109 -0.125,0.25 -0.24609,0.12109 -0.12891,-0.12109 -0.12891,-0.37109 -0.25782,-0.5 -0.12109,-0.12891 -0.12109,-0.37891 -0.25,-0.5 -0.12109,-0.375 -0.25,-0.75391 -0.50001,-1.13281 -0.375,-0.75 -0.625,-1.50392 -1.13281,-2.25782 0,-0.375 0.25781,-0.62891 0.37891,-0.375 z m 25.09771,-5.90236 c 0.75391,1.25781 1.38282,2.64063 1.76172,4.14454 0.12111,0.75391 0.25001,1.38282 0.37111,2.13282 0.125,0.7539 0.125,1.50782 0,2.25782 0,0.1289 -0.25,0.1289 -0.25,0 -0.12111,-0.62891 0,-1.375 0,-2.13282 0,-0.75391 -0.12111,-1.50391 -0.25001,-2.13282 -0.37891,-1.38281 -0.87891,-2.75782 -1.63282,-4.14063 -0.3789,-0.12891 -0.12109,-0.25 0,-0.12891 z m 20.32818,5.39845 c 0.1289,-0.37891 0.2539,-0.62891 0.3789,-1.00391 0.25,-0.6289 0.375,-1.3789 0.50391,-2.00391 0.25,-1.38282 0.25,-2.89063 -0.12891,-4.39454 0,-0.125 0.25,-0.25 0.25,-0.125 0.37891,1.50391 0.50782,3.01172 0.25,4.51954 -0.12109,0.7461 -0.37109,1.50391 -0.625,2.25782 -0.25,0.62891 -0.5,1.37891 -1,1.75391 -0.1289,0 -0.1289,0 -0.1289,-0.125 0.1289,-0.25 0.3789,-0.62891 0.5,-0.87891 z m -65.25406,76.79705 c 0.12891,-0.49609 0.375,-0.99609 0.375,-1.62501 0.25,-1.13281 0.25,-2.38671 0.12891,-3.51562 0,-0.12891 0.12109,-0.12891 0.12109,0 0.12891,0.62891 0.25782,1.12891 0.25782,1.75391 0,0.6289 0,1.13281 -0.12891,1.76171 -0.12891,0.62892 -0.25,1.25392 -0.5,1.75392 -0.125,0.5 -0.375,1.12891 -0.75391,1.50391 -0.1289,0.1289 -0.25,0 -0.1289,-0.1211 0.1289,-0.3789 0.50781,-0.88281 0.6289,-1.51172 z m 2.50782,-1.75391 c 0,-0.25 0.1289,-0.5 0.1289,-0.625 0,-0.5 0,-0.87891 -0.1289,-1.38281 0,-0.25 0.25781,-0.25 0.25781,-0.125 0.12109,0.5 0.12109,1.00781 0.12109,1.50781 0,0.5 -0.12109,1.0039 -0.3789,1.38282 -0.1211,0.12109 -0.25,0 -0.25,-0.12891 0.1289,-0.25001 0.25,-0.50001 0.25,-0.62891 z m -5.26955,3.38673 c 0.12891,-0.1211 0.12891,-0.25 0.12891,-0.5 0.12109,-0.2461 0.12109,-0.625 0.25,-0.875 0.12891,-0.62891 0.12891,-1.25391 0,-1.88283 0,-0.1289 0.12891,-0.1289 0.12891,0 0.12109,0.62892 0.12109,1.25392 0.12109,2.00392 0,0.37891 -0.12109,0.62891 -0.25,1.00391 0,0.1289 -0.12891,0.25 -0.12891,0.3789 -0.12109,0.1211 -0.12109,0.37891 -0.25,0.37891 -0.12109,0.12109 -0.12109,0 -0.12109,-0.12891 0,-0.1289 0,-0.25 0.12109,-0.3789 z m 7.03127,8.53517 c 0,-0.1289 0.25,-0.25 0.25,0 0.25,1.12891 0.25,2.26173 -0.25,3.26564 -0.1289,0.12109 -0.25,0 -0.25,-0.12891 0.25,-1.0039 0.5,-2.00782 0.25,-3.13673 z m -4.26954,3.51564 c 0.12891,-0.37891 0.25391,-0.75391 0.25391,-1.13281 0.12109,-0.75001 0.25,-1.62501 0.25,-2.38283 0,-0.1289 0.25,-0.1289 0.25,0 0,0.87891 0,1.63282 -0.12891,2.51173 -0.12109,0.375 -0.12109,0.75391 -0.25,1.25391 -0.12109,0.3789 -0.24609,0.7539 -0.49609,1.125 -0.12891,0.1289 -0.25,0 -0.25,-0.1211 0,-0.625 0.25,-1.0039 0.37109,-1.2539 z M 154.29084,138.89427 c 0.37891,0 0.62891,0.25 0.88672,0.37109 0.25,0.125 0.4961,0.25391 0.7461,0.50391 0.50781,0.37891 1.13281,0.62891 1.63281,1.00782 0.12891,0.1211 0,0.25 -0.125,0.25 -0.5,-0.25 -1.12891,-0.50781 -1.75781,-0.75782 -0.2461,-0.12109 -0.4961,-0.25 -0.87501,-0.37891 -0.25,-0.12109 -0.6289,-0.25 -0.8789,-0.5 0,-0.375 0.125,-0.625 0.37109,-0.49609 z m 0,0"
       id="path16622"
       style="stroke-width:1" />
    <path
       d="m 229.21679,209.66787 c 0,-0.25 0.37109,-0.12891 0.37109,0 -0.25,1.88282 -0.5,3.63672 -1,5.51955 h -0.1289 c 0,-1.88283 0.3789,-3.76564 0.75781,-5.51955 z m 0,0"
       id="path16624"
       style="stroke-width:1" />
    <g
       clip-path="url(#svg104153218549tikz_00019c)"
       id="g16628"
       transform="matrix(1.0000023,0,0,1.0000023,77.821914,26.351039)">
      <path
         d="M 2418.6719,632.94062 2115,752.15937"
         transform="matrix(0.1,0,0,-0.1,0,283.13)"
         fill="none"
         stroke-width="12.549"
         stroke="#e20c0c"
         stroke-miterlimit="10"
         id="path16626" />
    </g>
    <path
       d="m 318.05684,240.66013 0.12891,5.01954 -3.51563,3.51564 11.9219,-0.25001 z m 0,0"
       fill="#e20c0c"
       id="path16630"
       style="stroke-width:1" />
    <path
       d="M 166.34165,89.069929 V 185.19515"
       fill="none"
       stroke-width="1.2549"
       stroke="#000000"
       stroke-dasharray="37.647, 37.647"
       stroke-miterlimit="10"
       id="path16632" />
    <path
       d="m 186.91983,164.24198 v 15.55863"
       fill="none"
       stroke-width="1.2549"
       stroke-linecap="round"
       stroke-linejoin="round"
       stroke="#000000"
       stroke-miterlimit="10"
       id="path16634" />
    <path
       d="M 166.34165,185.57407 269.11532,156.46071"
       fill="none"
       stroke-width="1.2549"
       stroke="#000000"
       stroke-dasharray="37.647, 37.647"
       stroke-miterlimit="10"
       id="path16636" />
    <path
       d="m 166.59165,169.88653 20.20708,-6.02345 m -3.64454,27.98443 18.57426,-5.39454"
       fill="none"
       stroke-width="1.2549"
       stroke-linecap="round"
       stroke-linejoin="round"
       stroke="#000000"
       stroke-miterlimit="10"
       id="path16638" />
    <path
       d="M 287.68959,233.76167 166.34165,185.19515"
       fill="none"
       stroke-width="1.2549"
       stroke="#000000"
       stroke-dasharray="37.647, 37.647"
       stroke-miterlimit="10"
       id="path16640" />
    <path
       d="m 201.72845,186.20297 -14.55081,-6.15236"
       fill="none"
       stroke-width="1.2549"
       stroke-linecap="round"
       stroke-linejoin="round"
       stroke="#000000"
       stroke-miterlimit="10"
       id="path16642" />
    <path
       d="M 166.34165,99.612923 166.21274,61.589396"
       fill="none"
       stroke-width="1.2549"
       stroke-linecap="round"
       stroke-linejoin="round"
       stroke="#2d67ba"
       stroke-miterlimit="10"
       id="path16644" />
    <g
       clip-path="url(#svg104153218549tikz_00019d)"
       id="g16648"
       transform="matrix(1.0000023,0,0,1.0000023,77.821914,26.351039)">
      <path
         d="m 88.390625,28.964844 -4.511719,10.914062 4.511719,-2.632812 4.523438,2.632812 z m 0,0"
         fill="#2d67ba"
         id="path16646" />
    </g>
    <path
       d="m 271.37705,155.5779 34.00789,-9.78128"
       fill="none"
       stroke-width="1.2549"
       stroke-linecap="round"
       stroke-linejoin="round"
       stroke="#5b9936"
       id="path16650" />
    <path
       d="m 303.25602,151.31617 0.625,-5.02344 -3.26172,-3.89064 11.91799,1.38281 z m 0,0"
       fill="#5b9936"
       id="path16652"
       style="stroke-width:1" />
    <path
       d="m 170.89244,43.968267 0.30469,-1.816411 h -5.75783 l -0.0664,0.335939 c 0.90235,0 1.02735,0.152344 0.8711,0.925783 l -0.9961,4.773449 c -0.16796,0.82422 -0.43359,0.960939 -1.20312,0.960939 l -0.0664,0.332032 h 3.21094 l 0.0547,-0.332032 c -0.6875,0 -1.04688,-0.07813 -1.04688,-0.468751 0,-0.101562 0.0117,-0.234376 0.0469,-0.382813 l 0.47657,-2.386724 h 1.20703 c 0.95704,0 1.13672,0.125 0.95704,1.074221 h 0.36718 l 0.51563,-2.601569 h -0.35937 c -0.18751,0.894533 -0.42188,1.105472 -1.3711,1.105472 h -1.23829 l 0.60157,-2.902351 h 1.67578 c 1.44922,0 1.4961,0.32422 1.48438,1.382816 h 0.33203 M 331.18187,251.42187 c -0.19921,0.98047 -0.33593,1.125 -1.23829,1.125 l -0.0664,0.33594 h 3.04688 l 0.0664,-0.33594 c -0.70313,0 -0.89453,-0.0781 -0.89453,-0.49219 0,-0.15625 0.0352,-0.35546 0.0781,-0.58984 l 0.91797,-4.44142 c 0.16797,-0.86718 0.27734,-1.13671 1.26954,-1.13671 l 0.0664,-0.33594 h -3.08986 l -0.0664,0.33594 c 1.01562,0 1.01562,0.26953 0.82422,1.13671 l -0.91407,4.39845 m -9.95311,-109.13306 c 1.06251,-0.24609 1.95313,-0.79297 1.95313,-2.00001 0,-0.80078 -0.53515,-1.4375 -2.42188,-1.4375 h -2.82031 l -0.0664,0.33594 c 0.82422,0 1.03906,0.12109 0.84766,1.01562 l -0.94922,4.58204 c -0.19141,0.9258 -0.37891,1.06251 -1.22657,1.06251 l -0.0664,0.33204 h 3.21095 c 1.75001,0 3.13673,-0.8125 3.13673,-2.30861 0,-0.9375 -0.72657,-1.40625 -1.59767,-1.52734 z m -1.91797,-0.14844 0.58203,-2.83204 c 0.23438,-0.0234 0.33203,-0.0312 0.5586,-0.0312 1.25001,0 1.62501,0.48828 1.62501,1.08985 0,1.10547 -0.57813,1.77344 -2.1172,1.77344 z m -0.0898,0.44922 h 0.66015 c 0.9375,0 1.79298,0.28906 1.79298,1.31641 0,1.64845 -1.39063,1.87501 -2.40626,1.87501 -0.28125,0 -0.42578,-0.0117 -0.67969,-0.0352 l 0.63282,-3.15626"
       id="path16654"
       style="stroke-width:1" />
  </g>
</svg>
